<svg width="25" height="19" viewBox="0 0 25 19" fill="none" xmlns="http://www.w3.org/2000/svg">
<g filter="url(#filter0_d_1_94)">
<path d="M7.35211 10.2707C6.74022 10.2707 6.21811 10.0955 5.7858 9.7451C5.35348 9.39474 5.13732 8.97161 5.13732 8.4757H4V1.47379C4 1.21506 4.11307 0.994059 4.3392 0.810791C4.56534 0.627523 4.83803 0.535889 5.15728 0.535889H16.2911V3.07469H18.1866L21 6.13095V8.4757H19.7031C19.7031 8.97161 19.4869 9.39474 19.0546 9.7451C18.6223 10.0955 18.0935 10.2707 17.4683 10.2707C16.8564 10.2707 16.3376 10.0955 15.912 9.7451C15.4863 9.39474 15.2735 8.97161 15.2735 8.4757H9.5669C9.5669 8.97161 9.35074 9.39474 8.91843 9.7451C8.48611 10.0955 7.96401 10.2707 7.35211 10.2707ZM7.35211 9.5268C7.72457 9.5268 8.03717 9.42438 8.28991 9.21956C8.54264 9.01473 8.66901 8.76678 8.66901 8.4757C8.66901 8.18463 8.54264 7.93399 8.28991 7.72377C8.03717 7.51355 7.72457 7.40844 7.35211 7.40844C6.99296 7.40844 6.68701 7.51355 6.43427 7.72377C6.18153 7.93399 6.05516 8.18463 6.05516 8.4757C6.05516 8.76678 6.18153 9.01473 6.43427 9.21956C6.68701 9.42438 6.99296 9.5268 7.35211 9.5268ZM4.89789 7.73185H5.33685C5.50978 7.43 5.77582 7.17666 6.13498 6.97183C6.49413 6.767 6.89984 6.66459 7.35211 6.66459C7.77778 6.66459 8.17684 6.767 8.5493 6.97183C8.92175 7.17666 9.19444 7.43 9.36737 7.73185H15.3932V1.26357H5.15728C5.09077 1.26357 5.03091 1.28513 4.9777 1.32825C4.92449 1.37137 4.89789 1.41989 4.89789 1.47379V7.73185ZM17.4883 9.5268C17.8474 9.5268 18.1534 9.42438 18.4061 9.21956C18.6588 9.01473 18.7852 8.76678 18.7852 8.4757C18.7852 8.18463 18.6588 7.93399 18.4061 7.72377C18.1534 7.51355 17.8474 7.40844 17.4883 7.40844C17.1158 7.40844 16.8032 7.51355 16.5505 7.72377C16.2977 7.93399 16.1714 8.18463 16.1714 8.4757C16.1714 8.76678 16.2977 9.01473 16.5505 9.21956C16.8032 9.42438 17.1158 9.5268 17.4883 9.5268ZM16.2911 6.37351H20.1021L17.7277 3.81854H16.2911V6.37351Z" fill="white"/>
</g>
<defs>
<filter id="filter0_d_1_94" x="0" y="0.535889" width="25" height="17.7349" filterUnits="userSpaceOnUse" color-interpolation-filters="sRGB">
<feFlood flood-opacity="0" result="BackgroundImageFix"/>
<feColorMatrix in="SourceAlpha" type="matrix" values="0 0 0 0 0 0 0 0 0 0 0 0 0 0 0 0 0 0 127 0" result="hardAlpha"/>
<feOffset dy="4"/>
<feGaussianBlur stdDeviation="2"/>
<feComposite in2="hardAlpha" operator="out"/>
<feColorMatrix type="matrix" values="0 0 0 0 0 0 0 0 0 0 0 0 0 0 0 0 0 0 0.25 0"/>
<feBlend mode="normal" in2="BackgroundImageFix" result="effect1_dropShadow_1_94"/>
<feBlend mode="normal" in="SourceGraphic" in2="effect1_dropShadow_1_94" result="shape"/>
</filter>
</defs>
</svg>
