<svg width="27" height="35" viewBox="0 0 27 35" fill="none" xmlns="http://www.w3.org/2000/svg">
<path d="M2.61 34.2C1.89 34.2 1.275 33.945 0.765 33.435C0.255 32.925 0 32.31 0 31.59V9.81C0 9.09 0.255 8.475 0.765 7.965C1.275 7.455 1.89 7.2 2.61 7.2H7.065V6.435C7.065 4.635 7.6875 3.1125 8.9325 1.8675C10.1775 0.6225 11.7 0 13.5 0C15.3 0 16.8225 0.6225 18.0675 1.8675C19.3125 3.1125 19.935 4.635 19.935 6.435V7.2H24.39C25.11 7.2 25.725 7.455 26.235 7.965C26.745 8.475 27 9.09 27 9.81V31.59C27 32.31 26.745 32.925 26.235 33.435C25.725 33.945 25.11 34.2 24.39 34.2H2.61ZM2.61 32.175H24.39C24.54 32.175 24.675 32.115 24.795 31.995C24.915 31.875 24.975 31.74 24.975 31.59V9.81C24.975 9.66 24.915 9.525 24.795 9.405C24.675 9.285 24.54 9.225 24.39 9.225H19.935V13.635C19.935 13.905 19.8375 14.1375 19.6425 14.3325C19.4475 14.5275 19.2 14.625 18.9 14.625C18.6 14.625 18.3525 14.5275 18.1575 14.3325C17.9625 14.1375 17.865 13.905 17.865 13.635V9.225H9.135V13.635C9.135 13.905 9.0375 14.1375 8.8425 14.3325C8.6475 14.5275 8.4 14.625 8.1 14.625C7.8 14.625 7.5525 14.5275 7.3575 14.3325C7.1625 14.1375 7.065 13.905 7.065 13.635V9.225H2.61C2.46 9.225 2.325 9.285 2.205 9.405C2.085 9.525 2.025 9.66 2.025 9.81V31.59C2.025 31.74 2.085 31.875 2.205 31.995C2.325 32.115 2.46 32.175 2.61 32.175ZM9.135 7.2H17.865V6.435C17.865 5.205 17.445 4.1625 16.605 3.3075C15.765 2.4525 14.73 2.025 13.5 2.025C12.27 2.025 11.235 2.4525 10.395 3.3075C9.555 4.1625 9.135 5.205 9.135 6.435V7.2Z" fill="#383737" fill-opacity="0.9"/>
</svg>
