<svg width="27" height="27" viewBox="0 0 27 27" fill="none" xmlns="http://www.w3.org/2000/svg">
<path d="M25.7049 27L15.5015 16.821C14.7166 17.5022 13.8074 18.0328 12.774 18.4127C11.7406 18.7926 10.6613 18.9825 9.53634 18.9825C6.86773 18.9825 4.61119 18.059 2.76671 16.2118C0.922238 14.3646 0 12.1179 0 9.47162C0 6.85153 0.922238 4.6179 2.76671 2.77074C4.61119 0.923581 6.85465 0 9.49709 0C12.1395 0 14.383 0.923581 16.2275 2.77074C18.0719 4.6179 18.9942 6.85153 18.9942 9.47162C18.9942 10.5721 18.8045 11.6463 18.4251 12.6943C18.0458 13.7424 17.5029 14.6856 16.7965 15.524L27 25.7031L25.7049 27ZM9.53634 17.214C11.6555 17.214 13.4608 16.4607 14.952 14.9541C16.4433 13.4476 17.189 11.6201 17.189 9.47162C17.189 7.32314 16.4433 5.50218 14.952 4.00873C13.4608 2.51528 11.6555 1.76856 9.53634 1.76856C7.36483 1.76856 5.53343 2.51528 4.04215 4.00873C2.55087 5.50218 1.80523 7.32314 1.80523 9.47162C1.80523 11.6201 2.55087 13.4476 4.04215 14.9541C5.53343 16.4607 7.36483 17.214 9.53634 17.214Z" fill="#383737" fill-opacity="0.9"/>
</svg>
