<svg width="35" height="35" viewBox="0 0 35 35" fill="none" xmlns="http://www.w3.org/2000/svg">
<path d="M15.0208 24.8281L23.4062 16.4427L21.9479 14.9844L15.0573 21.875L11.4114 18.2292L9.91665 19.7239L15.0208 24.8281ZM9.15102 29.1667C7.01213 29.1667 5.19529 28.4193 3.7005 26.9245C2.20571 25.4297 1.45831 23.6128 1.45831 21.4739C1.45831 19.5781 2.06595 17.9132 3.28123 16.4792C4.49651 15.0451 6.03991 14.1823 7.91144 13.8906C8.39755 11.533 9.53991 9.60676 11.3385 8.11197C13.1371 6.61718 15.2153 5.86978 17.5729 5.86978C20.2951 5.86978 22.592 6.86023 24.4635 8.84114C26.3351 10.822 27.2708 13.1979 27.2708 15.9687V16.8437C29.0208 16.7951 30.5035 17.3602 31.7187 18.5391C32.934 19.7179 33.5416 21.2066 33.5416 23.0052C33.5416 24.6823 32.934 26.1285 31.7187 27.3437C30.5035 28.559 29.0573 29.1667 27.3802 29.1667H9.15102ZM9.15102 26.9792H27.3802C28.4739 26.9792 29.4097 26.5903 30.1875 25.8125C30.9653 25.0347 31.3541 24.0989 31.3541 23.0052C31.3541 21.9114 30.9653 20.9757 30.1875 20.1979C29.4097 19.4201 28.4739 19.0312 27.3802 19.0312H25.0833V15.9687C25.0833 13.7569 24.342 11.8854 22.8594 10.3542C21.3767 8.82291 19.566 8.05728 17.4271 8.05728C15.2882 8.05728 13.4713 8.82291 11.9765 10.3542C10.4818 11.8854 9.73436 13.7569 9.73436 15.9687H9.04165C7.5347 15.9687 6.25866 16.4974 5.21352 17.5547C4.16838 18.612 3.64581 19.9184 3.64581 21.4739C3.64581 23.0052 4.18054 24.3055 5.24998 25.375C6.31942 26.4444 7.61977 26.9792 9.15102 26.9792Z" fill="url(#paint0_linear_1_51)"/>
<defs>
<linearGradient id="paint0_linear_1_51" x1="17.5" y1="5.86978" x2="17.5" y2="29.1667" gradientUnits="userSpaceOnUse">
<stop stop-color="#973214"/>
<stop offset="1" stop-color="#9F3F23"/>
</linearGradient>
</defs>
</svg>
