<svg width="27" height="27" viewBox="0 0 27 27" fill="none" xmlns="http://www.w3.org/2000/svg">
<path d="M13.5 12.5526C11.76 12.5526 10.3275 11.9605 9.2025 10.7763C8.0775 9.59211 7.515 8.08421 7.515 6.25263C7.515 4.42105 8.0775 2.92105 9.2025 1.75263C10.3275 0.58421 11.76 0 13.5 0C15.24 0 16.6725 0.58421 17.7975 1.75263C18.9225 2.92105 19.485 4.42105 19.485 6.25263C19.485 8.08421 18.9225 9.59211 17.7975 10.7763C16.6725 11.9605 15.24 12.5526 13.5 12.5526ZM0 27V23.4C0 22.3895 0.255 21.5053 0.765 20.7474C1.275 19.9895 1.935 19.4053 2.745 18.9947C4.665 18.1105 6.5025 17.4474 8.2575 17.0053C10.0125 16.5632 11.76 16.3421 13.5 16.3421C15.24 16.3421 16.9875 16.5711 18.7425 17.0289C20.4975 17.4868 22.32 18.1579 24.21 19.0421C25.05 19.4526 25.725 20.0289 26.235 20.7711C26.745 21.5132 27 22.3895 27 23.4V27H0ZM2.025 24.8684H24.975V23.4C24.975 22.9263 24.825 22.4605 24.525 22.0026C24.225 21.5447 23.835 21.1895 23.355 20.9368C21.585 20.0211 19.9125 19.3816 18.3375 19.0184C16.7625 18.6553 15.15 18.4737 13.5 18.4737C11.85 18.4737 10.2225 18.6553 8.6175 19.0184C7.0125 19.3816 5.34 20.0211 3.6 20.9368C3.15 21.1895 2.775 21.5447 2.475 22.0026C2.175 22.4605 2.025 22.9263 2.025 23.4V24.8684ZM13.5 10.4211C14.61 10.4211 15.54 10.0263 16.29 9.23684C17.04 8.44737 17.415 7.45263 17.415 6.25263C17.415 5.08421 17.04 4.10526 16.29 3.31579C15.54 2.52632 14.61 2.13158 13.5 2.13158C12.39 2.13158 11.46 2.52632 10.71 3.31579C9.96 4.10526 9.585 5.08421 9.585 6.25263C9.585 7.45263 9.96 8.44737 10.71 9.23684C11.46 10.0263 12.39 10.4211 13.5 10.4211Z" fill="#383737" fill-opacity="0.9"/>
</svg>
